<svg width="1200" height="630" viewBox="0 0 1200 630" xmlns="http://www.w3.org/2000/svg">
  <defs>
    <linearGradient id="bg" x1="0" y1="0" x2="1200" y2="630" gradientUnits="userSpaceOnUse">
      <stop offset="0" stop-color="#03130f" />
      <stop offset="1" stop-color="#062019" />
    </linearGradient>
    <linearGradient id="wordmark" x1="0" y1="0" x2="1200" y2="0" gradientUnits="userSpaceOnUse">
      <stop offset="0" stop-color="#2dd4bf" />
      <stop offset="1" stop-color="#a7f3d0" />
    </linearGradient>
  </defs>
  <rect width="1200" height="630" fill="url(#bg)" />
  <g transform="translate(600,315) scale(0.8,0.86) translate(-600,-315)">
  <circle cx="50" cy="50" r="20" fill="none" stroke="#2dd4bf" stroke-width="2" opacity="0.6" />
  <path d="M1130 30 L1160 30 L1160 60" fill="none" stroke="#2dd4bf" stroke-width="2" opacity="0.6" />
  <path d="M50 570 L50 600 L80 600" fill="none" stroke="#2dd4bf" stroke-width="2" opacity="0.5" />
  <path d="M1150 570 L1150 600 L1120 600" fill="none" stroke="#2dd4bf" stroke-width="2" opacity="0.5" />

  <rect x="130" y="90" width="940" height="450" rx="18" fill="#03130f" stroke="#0f3d30" stroke-width="1.5" clip-path="url(#clip)" />
  <clipPath id="clip"><rect x="130" y="90" width="940" height="450" rx="18" /></clipPath>
  <rect x="130" y="90" width="470" height="450" fill="#0a2e22" />
  <g>
    <rect x="600" y="90" width="470" height="450" fill="#0d1f1a" />
    <g opacity="0.5">
      <rect x="600" y="90" width="29.4" height="28.1" fill="#123528" /><rect x="658.8" y="90" width="29.4" height="28.1" fill="#123528" /><rect x="717.6" y="90" width="29.4" height="28.1" fill="#123528" /><rect x="776.4" y="90" width="29.4" height="28.1" fill="#123528" /><rect x="835.2" y="90" width="29.4" height="28.1" fill="#123528" /><rect x="894" y="90" width="29.4" height="28.1" fill="#123528" /><rect x="952.8" y="90" width="29.4" height="28.1" fill="#123528" /><rect x="1011.6" y="90" width="29.4" height="28.1" fill="#123528" />
      <rect x="629.4" y="118.1" width="29.4" height="28.1" fill="#123528" /><rect x="688.2" y="118.1" width="29.4" height="28.1" fill="#123528" /><rect x="747" y="118.1" width="29.4" height="28.1" fill="#123528" /><rect x="805.8" y="118.1" width="29.4" height="28.1" fill="#123528" /><rect x="864.6" y="118.1" width="29.4" height="28.1" fill="#123528" /><rect x="923.4" y="118.1" width="29.4" height="28.1" fill="#123528" /><rect x="982.2" y="118.1" width="29.4" height="28.1" fill="#123528" />
    </g>
  </g>
  <g transform="translate(365,300)">
    <circle cx="0" cy="-70" r="46" fill="#f5c99b" />
    <path d="M-70 90 Q-70 -10 0 -10 Q70 -10 70 90 Z" fill="#2dd4bf" />
  </g>
  <g transform="translate(835,300)">
    <circle cx="0" cy="-70" r="46" fill="#f5c99b" />
    <path d="M-70 90 Q-70 -10 0 -10 Q70 -10 70 90 Z" fill="#2dd4bf" />
  </g>
  <line x1="600" y1="90" x2="600" y2="540" stroke="#a7f3d0" stroke-width="3" />
  <circle cx="600" cy="315" r="22" fill="#0d1f1a" stroke="#a7f3d0" stroke-width="2" />
  <path d="M593 315 L586 315 M607 315 L614 315" stroke="#a7f3d0" stroke-width="2" />
  <rect x="150" y="105" width="120" height="30" rx="15" fill="#03130f" opacity="0.8" />
  <text x="165" y="126" font-family="'Courier New',monospace" font-size="12" fill="#a7f3d0">ORIGINAL</text>
  <rect x="890" y="105" width="120" height="30" rx="15" fill="#03130f" opacity="0.8" />
  <text x="905" y="126" font-family="'Courier New',monospace" font-size="12" fill="#a7f3d0">REMOVED</text>
  <text x="165" y="500" font-family="Arial" font-size="30" font-weight="700" fill="url(#wordmark)">bgremover</text>
  <text x="165" y="524" font-family="'Courier New',monospace" font-size="13" letter-spacing="2" fill="#2dd4bf" opacity="0.9">ONNX &#183; RUNS ENTIRELY IN-BROWSER</text>

  </g>
</svg>
