<svg width="1200" height="630" viewBox="0 0 1200 630" xmlns="http://www.w3.org/2000/svg">
  <defs>
    <linearGradient id="bg" x1="0" y1="0" x2="1200" y2="630" gradientUnits="userSpaceOnUse">
      <stop offset="0" stop-color="#050510" />
      <stop offset="1" stop-color="#0a0a1a" />
    </linearGradient>
    <linearGradient id="wordmark" x1="0" y1="0" x2="1200" y2="0" gradientUnits="userSpaceOnUse">
      <stop offset="0" stop-color="#818cf8" />
      <stop offset="1" stop-color="#c4b5fd" />
    </linearGradient>
  </defs>
  <rect width="1200" height="630" fill="url(#bg)" />
  <g transform="translate(600,315) scale(0.8,0.86) translate(-600,-315)">
  <circle cx="50" cy="50" r="20" fill="none" stroke="#818cf8" stroke-width="2" opacity="0.6" />
  <path d="M1130 30 L1160 30 L1160 60" fill="none" stroke="#818cf8" stroke-width="2" opacity="0.6" />
  <path d="M50 570 L50 600 L80 600" fill="none" stroke="#818cf8" stroke-width="2" opacity="0.5" />
  <path d="M1150 570 L1150 600 L1120 600" fill="none" stroke="#818cf8" stroke-width="2" opacity="0.5" />

  <rect x="130" y="90" width="940" height="450" rx="18" fill="#0b0b16" stroke="#2a2a4a" stroke-width="1.5" />
  <circle cx="165" cy="123" r="5" fill="#34d399" />
  <text x="182" y="128" font-family="Arial" font-size="16" font-weight="700" fill="#e5e7eb">DevForge</text>
  <text x="270" y="128" font-family="'Courier New',monospace" font-size="12" fill="#818cf8">v1</text>
  <rect x="960" y="108" width="88" height="30" rx="15" fill="#6366f1" />
  <text x="1004" y="128" text-anchor="middle" font-family="Arial" font-size="13" font-weight="700" fill="white">Get Started</text>

  <text x="165" y="185" font-family="Arial" font-size="34" font-weight="700" fill="#e5e7eb">Your AI-native</text>
  <text x="165" y="222" font-family="Arial" font-size="34" font-weight="700" fill="url(#wordmark)">dev workspace</text>

  <rect x="165" y="255" width="560" height="150" rx="14" fill="#111124" stroke="#2a2a4a" />
  <circle cx="192" cy="283" r="9" fill="#818cf8" />
  <text x="212" y="288" font-family="Arial" font-size="13" font-weight="700" fill="#c7d2fe">Claude 3.5 Sonnet</text>
  <text x="900" y="288" text-anchor="end" font-family="'Courier New',monospace" font-size="11" fill="#6b7280">STREAMING</text>
  <text x="192" y="318" font-family="Arial" font-size="13" fill="#9ca3af">Explain this TypeScript error and fix it</text>
  <rect x="192" y="336" width="500" height="46" rx="8" fill="#0b0b16" stroke="#312e81" />
  <text x="204" y="358" font-family="'Courier New',monospace" font-size="12" fill="#a5b4fc">const [userData, setUserData] = useState([]);</text>
  <text x="204" y="374" font-family="'Courier New',monospace" font-size="10" fill="#6b7280">FIX &#183; 1 LINE</text>

  <rect x="745" y="255" width="335" height="150" rx="14" fill="#111124" stroke="#2a2a4a" />
  <text x="765" y="283" font-family="Arial" font-size="13" font-weight="700" fill="#c7d2fe">22 local-first tools</text>
  <rect x="765" y="300" width="90" height="28" rx="14" fill="none" stroke="#4c1d95" />
  <text x="810" y="318" text-anchor="middle" font-family="'Courier New',monospace" font-size="11" fill="#c4b5fd">Base64</text>
  <rect x="865" y="300" width="80" height="28" rx="14" fill="none" stroke="#4c1d95" />
  <text x="905" y="318" text-anchor="middle" font-family="'Courier New',monospace" font-size="11" fill="#c4b5fd">Regex</text>
  <rect x="765" y="336" width="70" height="28" rx="14" fill="none" stroke="#4c1d95" />
  <text x="800" y="354" text-anchor="middle" font-family="'Courier New',monospace" font-size="11" fill="#c4b5fd">JWT</text>
  <rect x="845" y="336" width="110" height="28" rx="14" fill="none" stroke="#4c1d95" />
  <text x="900" y="354" text-anchor="middle" font-family="'Courier New',monospace" font-size="11" fill="#c4b5fd">Markdown</text>

  <text x="165" y="450" font-family="'Courier New',monospace" font-size="14" letter-spacing="2" fill="#818cf8" opacity="0.85">15+ MODELS &#183; STUDIO BUILDER &#183; ZERO EGRESS</text>

  </g>
</svg>
