<svg width="1200" height="630" viewBox="0 0 1200 630" xmlns="http://www.w3.org/2000/svg">
  <defs>
    <linearGradient id="bg" x1="0" y1="0" x2="1200" y2="630" gradientUnits="userSpaceOnUse">
      <stop offset="0" stop-color="#0a0a17" />
      <stop offset="1" stop-color="#12122a" />
    </linearGradient>
    <linearGradient id="wordmark" x1="0" y1="0" x2="1200" y2="0" gradientUnits="userSpaceOnUse">
      <stop offset="0" stop-color="#5865F2" />
      <stop offset="1" stop-color="#c7ccfd" />
    </linearGradient>
  </defs>
  <rect width="1200" height="630" fill="url(#bg)" />
  <g transform="translate(600,315) scale(0.8,0.86) translate(-600,-315)">
  <circle cx="50" cy="50" r="20" fill="none" stroke="#5865F2" stroke-width="2" opacity="0.6" />
  <path d="M1130 30 L1160 30 L1160 60" fill="none" stroke="#5865F2" stroke-width="2" opacity="0.6" />
  <path d="M50 570 L50 600 L80 600" fill="none" stroke="#5865F2" stroke-width="2" opacity="0.5" />
  <path d="M1150 570 L1150 600 L1120 600" fill="none" stroke="#5865F2" stroke-width="2" opacity="0.5" />

  <rect x="130" y="90" width="940" height="450" rx="18" fill="#0d0d1a" stroke="#292966" stroke-width="1.5" />
  <rect x="130" y="90" width="90" height="450" rx="18" fill="#0a0a17" />
  <circle cx="175" cy="140" r="22" fill="#1e1e3f" stroke="#5865F2" stroke-width="2" />
  <circle cx="175" cy="200" r="22" fill="#5865F2" />
  <circle cx="175" cy="260" r="22" fill="#1e1e3f" stroke="#5865F2" stroke-width="2" />

  <text x="255" y="145" font-family="Arial" font-size="15" font-weight="700" fill="#e5e7eb">#general</text>
  <line x1="255" y1="160" x2="1030" y2="160" stroke="#23233f" />

  <circle cx="270" cy="205" r="18" fill="#5865F2" />
  <text x="270" y="211" text-anchor="middle" font-family="Arial" font-size="14" font-weight="700" fill="white">d</text>
  <text x="300" y="200" font-family="Arial" font-size="14" font-weight="700" fill="#c7ccfd">discbot</text>
  <rect x="360" y="188" width="36" height="18" rx="4" fill="#5865F2" />
  <text x="378" y="201" text-anchor="middle" font-family="Arial" font-size="10" font-weight="700" fill="white">BOT</text>
  <text x="300" y="222" font-family="Arial" font-size="13" fill="#9ca3af">dropped a fresh meme in the chat &#128514;</text>

  <rect x="300" y="240" width="260" height="150" rx="10" fill="#15152b" stroke="#292966" />
  <circle cx="345" cy="285" r="18" fill="#3a3a6a" />
  <path d="M330 320 L358 290 L378 310 L400 275 L420 320 Z" fill="#3a3a6a" />

  <circle cx="270" cy="425" r="18" fill="#3a3a6a" />
  <text x="300" y="422" font-family="Arial" font-size="14" font-weight="700" fill="#c7ccfd">someone</text>
  <text x="300" y="444" font-family="Arial" font-size="13" fill="#9ca3af">LMAOOO good bot &#128128;</text>

  <text x="255" y="500" font-family="Arial" font-size="26" font-weight="700" fill="url(#wordmark)">discbot</text>
  <text x="255" y="524" font-family="'Courier New',monospace" font-size="13" letter-spacing="2" fill="#8b93f8" opacity="0.9">AUTOMATED MEME DELIVERY</text>

  </g>
</svg>
