<svg width="1200" height="630" viewBox="0 0 1200 630" xmlns="http://www.w3.org/2000/svg">
  <defs>
    <linearGradient id="bg" x1="0" y1="0" x2="1200" y2="630" gradientUnits="userSpaceOnUse">
      <stop offset="0" stop-color="#050109" />
      <stop offset="1" stop-color="#0a0518" />
    </linearGradient>
    <linearGradient id="wordmark" x1="0" y1="0" x2="1200" y2="0" gradientUnits="userSpaceOnUse">
      <stop offset="0" stop-color="#7dd3fc" />
      <stop offset="0.5" stop-color="#a78bfa" />
      <stop offset="1" stop-color="#f0abfc" />
    </linearGradient>
  </defs>
  <rect width="1200" height="630" fill="url(#bg)" />
  <g transform="translate(600,315) scale(0.8,0.86) translate(-600,-315)">
  <circle cx="50" cy="50" r="20" fill="none" stroke="#22d3ee" stroke-width="2" opacity="0.6" />
  <path d="M1130 30 L1160 30 L1160 60" fill="none" stroke="#f0abfc" stroke-width="2" opacity="0.6" />
  <path d="M50 570 L50 600 L80 600" fill="none" stroke="#f0abfc" stroke-width="2" opacity="0.5" />
  <path d="M1150 570 L1150 600 L1120 600" fill="none" stroke="#22d3ee" stroke-width="2" opacity="0.5" />

  <rect x="130" y="90" width="940" height="450" rx="18" fill="#050110" stroke="#2a1f4a" stroke-width="1.5" />

  <rect x="165" y="112" width="185" height="26" rx="13" fill="none" stroke="#22d3ee" stroke-width="1.5" opacity="0.8" />
  <circle cx="180" cy="125" r="4" fill="#22d3ee" />
  <text x="193" y="129" font-family="'Courier New', monospace" font-size="11" letter-spacing="2" fill="#67e8f9">CHAPTER 01 &#183; WAKE</text>

  <text x="165" y="215" font-family="Arial, Helvetica, sans-serif" font-size="86" font-weight="700" letter-spacing="3" fill="url(#wordmark)">LUNA</text>
  <text x="165" y="245" font-family="Arial" font-size="14" fill="#c4b5fd" opacity="0.9">Voice-first, visually aware &#8212; built to feel like a</text>
  <text x="165" y="266" font-family="Arial" font-size="14" fill="#c4b5fd" opacity="0.9">presence beside you, not a tool window.</text>

  <g font-family="Arial" font-size="12" font-weight="700">
    <rect x="165" y="290" width="94" height="30" rx="15" fill="#1a1030" stroke="#7dd3fc" />
    <text x="212" y="310" text-anchor="middle" fill="#7dd3fc">Voice</text>
    <rect x="269" y="290" width="94" height="30" rx="15" fill="#1a1030" stroke="#a78bfa" />
    <text x="316" y="310" text-anchor="middle" fill="#a78bfa">Vision</text>
    <rect x="373" y="290" width="130" height="30" rx="15" fill="#1a1030" stroke="#f0abfc" />
    <text x="438" y="310" text-anchor="middle" fill="#f0abfc">Local-first</text>
    <rect x="513" y="290" width="112" height="30" rx="15" fill="#1a1030" stroke="#fda4af" />
    <text x="569" y="310" text-anchor="middle" fill="#fda4af">Memory</text>
  </g>

  <g transform="translate(345,375)" stroke="#a78bfa" stroke-width="4" stroke-linecap="round" opacity="0.9">
    <line x1="-170" y1="0" x2="-170" y2="0" />
    <line x1="-150" y1="-8" x2="-150" y2="8" />
    <line x1="-130" y1="-18" x2="-130" y2="18" />
    <line x1="-110" y1="-6" x2="-110" y2="6" />
    <line x1="-90" y1="-24" x2="-90" y2="24" />
    <line x1="-70" y1="-11" x2="-70" y2="11" />
    <line x1="-50" y1="-28" x2="-50" y2="28" />
    <line x1="-30" y1="-14" x2="-30" y2="14" />
    <line x1="-10" y1="-32" x2="-10" y2="32" />
    <line x1="10" y1="-12" x2="10" y2="12" />
    <line x1="30" y1="-28" x2="30" y2="28" />
    <line x1="50" y1="-10" x2="50" y2="10" />
    <line x1="70" y1="-22" x2="70" y2="22" />
    <line x1="90" y1="-6" x2="90" y2="6" />
    <line x1="110" y1="-16" x2="110" y2="16" />
    <line x1="130" y1="-8" x2="130" y2="8" />
    <line x1="150" y1="-12" x2="150" y2="12" />
    <line x1="170" y1="-4" x2="170" y2="4" />
  </g>

  <g font-family="'Courier New', monospace" font-size="11" fill="#67e8f9" opacity="0.9">
    <text x="620" y="360" text-anchor="middle" opacity="0.4">IDLE</text>
    <text x="700" y="360" text-anchor="middle" fill="#f0abfc" font-weight="700">LISTENING</text>
    <text x="795" y="360" text-anchor="middle" opacity="0.4">THINKING</text>
    <text x="890" y="360" text-anchor="middle" opacity="0.4">SPEAKING</text>
  </g>
  <line x1="600" y1="375" x2="920" y2="375" stroke="#2a1f4a" stroke-width="2" />
  <circle cx="700" cy="375" r="5" fill="#f0abfc" />

  <rect x="165" y="410" width="850" height="1" fill="#2a1f4a" />
  <text x="165" y="445" font-family="'Courier New', monospace" font-size="26" font-weight="700" fill="#7dd3fc">0ms</text>
  <text x="165" y="465" font-family="'Courier New', monospace" font-size="10" letter-spacing="1.5" fill="#7dd3fc" opacity="0.7">VOICE LATENCY</text>
  <text x="290" y="445" font-family="'Courier New', monospace" font-size="26" font-weight="700" fill="#a78bfa">0/7</text>
  <text x="290" y="465" font-family="'Courier New', monospace" font-size="10" letter-spacing="1.5" fill="#a78bfa" opacity="0.7">ALWAYS AWAKE</text>

  <rect x="765" y="425" width="250" height="30" rx="15" fill="none" stroke="#4ade80" stroke-width="1.5" opacity="0.7" />
  <circle cx="782" cy="440" r="4" fill="#4ade80" />
  <text x="796" y="444" font-family="'Courier New', monospace" font-size="10" letter-spacing="1.5" fill="#a5f3fc">SIGNAL LOCKED</text>

  </g>
</svg>
