<svg width="1200" height="630" viewBox="0 0 1200 630" xmlns="http://www.w3.org/2000/svg">
  <defs>
    <linearGradient id="bg" x1="0" y1="0" x2="1200" y2="630" gradientUnits="userSpaceOnUse">
      <stop offset="0" stop-color="#04121a" />
      <stop offset="1" stop-color="#0a1f2b" />
    </linearGradient>
    <linearGradient id="wordmark" x1="0" y1="0" x2="1200" y2="0" gradientUnits="userSpaceOnUse">
      <stop offset="0" stop-color="#38bdf8" />
      <stop offset="1" stop-color="#a3e635" />
    </linearGradient>
  </defs>
  <rect width="1200" height="630" fill="url(#bg)" />
  <g transform="translate(600,315) scale(0.8,0.86) translate(-600,-315)">
  <circle cx="50" cy="50" r="20" fill="none" stroke="#38bdf8" stroke-width="2" opacity="0.6" />
  <path d="M1130 30 L1160 30 L1160 60" fill="none" stroke="#38bdf8" stroke-width="2" opacity="0.6" />
  <path d="M50 570 L50 600 L80 600" fill="none" stroke="#38bdf8" stroke-width="2" opacity="0.5" />
  <path d="M1150 570 L1150 600 L1120 600" fill="none" stroke="#38bdf8" stroke-width="2" opacity="0.5" />

  <rect x="130" y="90" width="940" height="450" rx="18" fill="#03121a" stroke="#0e3a4a" stroke-width="1.5" />
  <text x="165" y="140" font-family="Arial" font-size="30" font-weight="700" fill="url(#wordmark)">PhyVerse</text>
  <text x="165" y="165" font-family="Arial" font-size="13" fill="#7dd3fc">Learn physics by experimenting, not memorizing.</text>

  <rect x="165" y="200" width="270" height="230" rx="14" fill="#04202e" stroke="#0e5a70" />
  <text x="195" y="232" font-family="Arial" font-size="14" font-weight="700" fill="#7dd3fc">Motion Hall</text>
  <line x1="195" y1="330" x2="405" y2="330" stroke="#164e63" stroke-width="2" />
  <circle cx="230" cy="330" r="10" fill="#38bdf8" />
  <path d="M230 330 Q300 260 405 330" fill="none" stroke="#38bdf8" stroke-width="2" stroke-dasharray="5 5" opacity="0.7" />
  <circle cx="405" cy="330" r="6" fill="#a3e635" />

  <rect x="465" y="200" width="270" height="230" rx="14" fill="#04202e" stroke="#0e5a70" />
  <text x="495" y="232" font-family="Arial" font-size="14" font-weight="700" fill="#34d399">Force Factory</text>
  <circle cx="600" cy="330" r="26" fill="none" stroke="#34d399" stroke-width="2" />
  <path d="M600 330 L660 300" stroke="#a3e635" stroke-width="3" marker-end="url(#arrow)" />
  <path d="M600 330 L640 380" stroke="#38bdf8" stroke-width="3" />

  <rect x="765" y="200" width="270" height="230" rx="14" fill="#04202e" stroke="#0e5a70" />
  <text x="795" y="232" font-family="Arial" font-size="14" font-weight="700" fill="#a3e635">Gravity Garden</text>
  <circle cx="900" cy="330" r="14" fill="#facc15" />
  <ellipse cx="900" cy="330" rx="70" ry="26" fill="none" stroke="#a3e635" stroke-width="2" opacity="0.8" />
  <circle cx="970" cy="330" r="5" fill="#7dd3fc" />

  <text x="165" y="480" font-family="'Courier New',monospace" font-size="14" letter-spacing="2" fill="#38bdf8" opacity="0.85">INTERACTIVE SIMULATIONS &#183; OPEN SOURCE</text>

  </g>
</svg>
