<svg width="1200" height="630" viewBox="0 0 1200 630" xmlns="http://www.w3.org/2000/svg">
  <defs>
    <linearGradient id="bg" x1="0" y1="0" x2="1200" y2="630" gradientUnits="userSpaceOnUse">
      <stop offset="0" stop-color="#170505" />
      <stop offset="1" stop-color="#220a08" />
    </linearGradient>
    <linearGradient id="wordmark" x1="0" y1="0" x2="1200" y2="0" gradientUnits="userSpaceOnUse">
      <stop offset="0" stop-color="#fb7185" />
      <stop offset="1" stop-color="#fbbf24" />
    </linearGradient>
  </defs>
  <rect width="1200" height="630" fill="url(#bg)" />
  <g transform="translate(600,315) scale(0.8,0.86) translate(-600,-315)">
  <circle cx="50" cy="50" r="20" fill="none" stroke="#fb7185" stroke-width="2" opacity="0.6" />
  <path d="M1130 30 L1160 30 L1160 60" fill="none" stroke="#fb7185" stroke-width="2" opacity="0.6" />
  <path d="M50 570 L50 600 L80 600" fill="none" stroke="#fb7185" stroke-width="2" opacity="0.5" />
  <path d="M1150 570 L1150 600 L1120 600" fill="none" stroke="#fb7185" stroke-width="2" opacity="0.5" />

  <rect x="130" y="90" width="940" height="450" rx="18" fill="#170808" stroke="#4a1616" stroke-width="1.5" />
  <text x="165" y="135" font-family="Arial" font-size="26" font-weight="700" fill="url(#wordmark)">Task Manager</text>
  <text x="165" y="158" font-family="'Courier New',monospace" font-size="12" fill="#fca5a5" opacity="0.8">ANGULAR &#183; CRUD</text>

  <rect x="165" y="190" width="270" height="270" rx="12" fill="#1f0d0d" stroke="#4a1616" />
  <text x="190" y="222" font-family="Arial" font-size="14" font-weight="700" fill="#fda4af">To Do</text>
  <rect x="188" y="240" width="224" height="48" rx="8" fill="#170808" stroke="#4a1616" />
  <rect x="204" y="260" width="120" height="8" rx="4" fill="#7f1d1d" />
  <rect x="188" y="298" width="224" height="48" rx="8" fill="#170808" stroke="#4a1616" />
  <rect x="204" y="318" width="90" height="8" rx="4" fill="#7f1d1d" />

  <rect x="465" y="190" width="270" height="270" rx="12" fill="#221008" stroke="#5a2a0f" />
  <text x="490" y="222" font-family="Arial" font-size="14" font-weight="700" fill="#fb923c">In Progress</text>
  <rect x="488" y="240" width="224" height="48" rx="8" fill="#170808" stroke="#5a2a0f" />
  <rect x="504" y="260" width="140" height="8" rx="4" fill="#c2410c" />
  <rect x="488" y="298" width="224" height="48" rx="8" fill="#170808" stroke="#5a2a0f" />
  <rect x="504" y="318" width="100" height="8" rx="4" fill="#c2410c" />

  <rect x="765" y="190" width="270" height="270" rx="12" fill="#171f08" stroke="#3f4a16" />
  <text x="790" y="222" font-family="Arial" font-size="14" font-weight="700" fill="#fbbf24">Done</text>
  <rect x="788" y="240" width="224" height="48" rx="8" fill="#170808" stroke="#3f4a16" />
  <path d="M808 264 L818 274 L836 254" fill="none" stroke="#fbbf24" stroke-width="3" stroke-linecap="round" stroke-linejoin="round" />
  <rect x="850" y="260" width="120" height="8" rx="4" fill="#3f4a16" />
  <rect x="788" y="298" width="224" height="48" rx="8" fill="#170808" stroke="#3f4a16" />
  <path d="M808 322 L818 332 L836 312" fill="none" stroke="#fbbf24" stroke-width="3" stroke-linecap="round" stroke-linejoin="round" />
  <rect x="850" y="318" width="90" height="8" rx="4" fill="#3f4a16" />

  <text x="165" y="500" font-family="'Courier New',monospace" font-size="14" letter-spacing="2" fill="#fb7185" opacity="0.85">TASK FORM &#183; TASK LIST &#183; SERVICE LAYER</text>

  </g>
</svg>
